<?xml version="1.0" encoding="UTF-8"?>
<svg id="Layer_1" data-name="Layer 1" xmlns="http://www.w3.org/2000/svg" viewBox="0 0 1324.12 1216.85">
  <defs>
    <style>
      .cls-1 {
        fill: #00adee;
      }

      .cls-1, .cls-2, .cls-3 {
        fill-rule: evenodd;
      }

      .cls-2 {
        fill: #27436f;
      }

      .cls-3 {
        fill: #0073a4;
      }
    </style>
  </defs>
  <path class="cls-2" d="M674.13,229.41c-89.56,61.74-112.11,184.34-50.38,273.9,61.72,89.55,184.33,112.12,273.89,50.39,89.56-61.73,112.12-184.33,50.4-273.89-61.74-89.56-184.35-112.12-273.91-50.4Z"/>
  <path class="cls-2" d="M356.46,0l-166.86,109.25c156.4,475.72,596.76,1001.33,1050.41,1030.15C703.4,944.21,442.49,337.95,356.46,0Z"/>
  <path class="cls-3" d="M197.12,287.19l-131.65,128.81c115.05,204.54,298.65,407.59,505.98,550.85,29.39-22.09,57.82-45.23,85.25-69.24-221.98-189.56-377.27-437.45-459.58-610.41Z"/>
  <path class="cls-2" d="M662.57,1025.02c176.23,103.12,364.26,159.67,538.78,136.61-170.51-26.49-322.13-98.13-453.83-192.72-27.95,19.79-56.28,38.55-84.95,56.12Z"/>
  <path class="cls-1" d="M95.03,581.62L0,719.93c111.2,130.28,261.6,251.99,425.27,342.35,36.41-20.33,71.59-42.43,105.56-66.05-192.64-126.66-344.49-291.5-435.79-414.61Z"/>
  <path class="cls-2" d="M509.87,1105.57c215.9,101.9,446.57,145.26,636.52,81.14-191.78,7.71-370.23-49.76-526.55-136.53-36.29,20.5-73,39.05-109.97,55.39Z"/>
  <path class="cls-2" d="M119.58,1196.6c452.27,45.66,972.55-400.99,1204.54-844.77l-146.77-135.04c-140.07,319.37-496.48,874.88-1057.77,979.81Z"/>
</svg>